<svg width="96" height="100" viewBox="0 0 96 100" fill="none" xmlns="http://www.w3.org/2000/svg">
<rect width="96" height="100" rx="20" fill="#56DA7B"/>
<path d="M76.1 78C77.93 78 79.685 77.3059 80.979 76.0703C82.273 74.8348 83 73.1591 83 71.4118V38.4706C83 36.7233 82.273 35.0475 80.979 33.812C79.685 32.5765 77.93 31.8824 76.1 31.8824H48.845C47.691 31.8932 46.5526 31.6274 45.534 31.1095C44.5154 30.5915 43.6492 29.8379 43.0145 28.9176L40.22 24.9647C39.5917 24.0538 38.7364 23.306 37.7308 22.7886C36.7252 22.2712 35.6008 22.0002 34.4585 22H20.9C19.07 22 17.315 22.6941 16.021 23.9296C14.727 25.1652 14 26.8409 14 28.5882V71.4118C14 73.1591 14.727 74.8348 16.021 76.0703C17.315 77.3059 19.07 78 20.9 78H76.1Z" stroke="white" stroke-width="5" stroke-linecap="round" stroke-linejoin="round"/>
</svg>
