<svg width="96" height="100" viewBox="0 0 96 100" fill="none" xmlns="http://www.w3.org/2000/svg">
<rect width="96" height="100" rx="20" fill="#D079FF"/>
<path d="M77.836 49.9965C79.6657 49.9965 81.1673 48.4178 80.985 46.4875C80.2208 38.4154 76.8484 30.872 71.4396 25.1361C66.0308 19.4002 58.9184 15.8247 51.3081 15.0159C49.485 14.8226 48 16.4153 48 18.3561V46.484C48 47.4165 48.3492 48.3108 48.9709 48.9702C49.5925 49.6296 50.4356 50 51.3147 50L77.836 49.9965Z" stroke="white" stroke-width="5" stroke-linecap="round" stroke-linejoin="round"/>
<path d="M81 62.7007C78.8143 68.1957 75.3957 73.0379 71.0431 76.8038C66.6905 80.5698 61.5363 83.1449 56.0313 84.304C50.5262 85.4632 44.8379 85.171 39.4636 83.4531C34.0893 81.7352 29.1927 78.6438 25.2019 74.4493C21.211 70.2548 18.2474 65.0849 16.5702 59.3914C14.893 53.698 14.5532 47.6545 15.5806 41.7892C16.608 35.924 18.9713 30.4155 22.4637 25.7456C25.9562 21.0756 30.4717 17.3862 35.6152 15" stroke="white" stroke-width="5" stroke-linecap="round" stroke-linejoin="round"/>
</svg>
