<svg width="627" height="120" viewBox="0 0 627 120" fill="none" xmlns="http://www.w3.org/2000/svg">
<path d="M0.32191 46V2.36364H17.5378C20.8475 2.36364 23.6671 2.99574 25.9966 4.25994C28.3262 5.50994 30.1017 7.25 31.3233 9.48011C32.5591 11.696 33.177 14.2528 33.177 17.1506C33.177 20.0483 32.552 22.6051 31.302 24.821C30.052 27.0369 28.2409 28.7628 25.8688 29.9986C23.5108 31.2344 20.6557 31.8523 17.3034 31.8523H6.33043V24.4588H15.812C17.5875 24.4588 19.0506 24.1534 20.2012 23.5426C21.3659 22.9176 22.2324 22.0582 22.8006 20.9645C23.383 19.8565 23.6742 18.5852 23.6742 17.1506C23.6742 15.7017 23.383 14.4375 22.8006 13.358C22.2324 12.2642 21.3659 11.419 20.2012 10.8224C19.0364 10.2116 17.5591 9.90625 15.7694 9.90625H9.54776V46H0.32191ZM53.2587 46.6392C49.949 46.6392 47.0868 45.9361 44.6721 44.5298C42.2715 43.1094 40.4178 41.1349 39.111 38.6065C37.8042 36.0639 37.1507 33.1165 37.1507 29.7642C37.1507 26.3835 37.8042 23.429 39.111 20.9006C40.4178 18.358 42.2715 16.3835 44.6721 14.9773C47.0868 13.5568 49.949 12.8466 53.2587 12.8466C56.5684 12.8466 59.4235 13.5568 61.824 14.9773C64.2388 16.3835 66.0996 18.358 67.4064 20.9006C68.7132 23.429 69.3667 26.3835 69.3667 29.7642C69.3667 33.1165 68.7132 36.0639 67.4064 38.6065C66.0996 41.1349 64.2388 43.1094 61.824 44.5298C59.4235 45.9361 56.5684 46.6392 53.2587 46.6392ZM53.3013 39.608C54.807 39.608 56.0641 39.1818 57.0726 38.3295C58.0811 37.4631 58.8411 36.2841 59.3525 34.7926C59.878 33.3011 60.1408 31.6037 60.1408 29.7003C60.1408 27.7969 59.878 26.0994 59.3525 24.608C58.8411 23.1165 58.0811 21.9375 57.0726 21.071C56.0641 20.2045 54.807 19.7713 53.3013 19.7713C51.7814 19.7713 50.503 20.2045 49.4661 21.071C48.4434 21.9375 47.6692 23.1165 47.1436 24.608C46.6323 26.0994 46.3766 27.7969 46.3766 29.7003C46.3766 31.6037 46.6323 33.3011 47.1436 34.7926C47.6692 36.2841 48.4434 37.4631 49.4661 38.3295C50.503 39.1818 51.7814 39.608 53.3013 39.608ZM80.9043 46L71.998 13.2727H81.1813L86.2523 35.2614H86.5506L91.8347 13.2727H100.847L106.217 35.1335H106.494L111.48 13.2727H120.642L111.757 46H102.147L96.5222 25.4176H96.1174L90.4924 46H80.9043ZM139.578 46.6392C136.211 46.6392 133.314 45.9574 130.885 44.5938C128.47 43.2159 126.609 41.2699 125.302 38.7557C123.996 36.2273 123.342 33.2372 123.342 29.7855C123.342 26.419 123.996 23.4645 125.302 20.9219C126.609 18.3793 128.449 16.3977 130.821 14.9773C133.207 13.5568 136.006 12.8466 139.216 12.8466C141.375 12.8466 143.385 13.1946 145.246 13.8906C147.121 14.5724 148.754 15.6023 150.146 16.9801C151.552 18.358 152.646 20.0909 153.427 22.179C154.209 24.2528 154.599 26.6818 154.599 29.4659V31.9588H126.964V26.3338H146.055C146.055 25.027 145.771 23.8693 145.203 22.8608C144.635 21.8523 143.846 21.0639 142.838 20.4957C141.844 19.9134 140.686 19.6222 139.365 19.6222C137.987 19.6222 136.765 19.9418 135.7 20.581C134.649 21.206 133.825 22.0511 133.229 23.1165C132.632 24.1676 132.327 25.3395 132.312 26.6321V31.9801C132.312 33.5994 132.611 34.9986 133.207 36.1776C133.818 37.3565 134.677 38.2656 135.785 38.9048C136.893 39.544 138.207 39.8636 139.727 39.8636C140.736 39.8636 141.659 39.7216 142.497 39.4375C143.335 39.1534 144.052 38.7273 144.649 38.1591C145.246 37.5909 145.7 36.8949 146.013 36.071L154.407 36.625C153.981 38.642 153.108 40.4034 151.787 41.9091C150.48 43.4006 148.79 44.5653 146.716 45.4034C144.656 46.2273 142.277 46.6392 139.578 46.6392ZM160.523 46V13.2727H169.322V18.983H169.663C170.26 16.9517 171.261 15.4176 172.667 14.3807C174.074 13.3295 175.693 12.804 177.525 12.804C177.98 12.804 178.47 12.8324 178.996 12.8892C179.521 12.946 179.983 13.0241 180.381 13.1236V21.1776C179.954 21.0497 179.365 20.9361 178.612 20.8366C177.859 20.7372 177.17 20.6875 176.545 20.6875C175.21 20.6875 174.017 20.9787 172.966 21.5611C171.929 22.1293 171.105 22.9247 170.494 23.9474C169.898 24.9702 169.599 26.1491 169.599 27.4844V46H160.523ZM204.313 13.2727V20.0909H184.115V13.2727H204.313ZM188.738 46V10.9077C188.738 8.53551 189.2 6.56818 190.123 5.00568C191.061 3.44318 192.339 2.2713 193.958 1.49005C195.578 0.708804 197.417 0.318179 199.477 0.318179C200.869 0.318179 202.14 0.424714 203.291 0.637784C204.455 0.850851 205.322 1.04261 205.89 1.21307L204.271 8.03125C203.916 7.91761 203.475 7.81108 202.95 7.71165C202.438 7.61222 201.913 7.5625 201.373 7.5625C200.038 7.5625 199.107 7.875 198.582 8.5C198.056 9.1108 197.794 9.97017 197.794 11.0781V46H188.738ZM230.846 32.0653V13.2727H239.922V46H231.208V40.0554H230.867C230.128 41.973 228.9 43.5142 227.181 44.679C225.476 45.8437 223.395 46.4261 220.938 46.4261C218.751 46.4261 216.826 45.929 215.164 44.9347C213.502 43.9403 212.202 42.527 211.265 40.6946C210.341 38.8622 209.873 36.6676 209.858 34.1108V13.2727H218.935V32.4915C218.949 34.4233 219.468 35.9503 220.491 37.0724C221.513 38.1946 222.884 38.7557 224.603 38.7557C225.697 38.7557 226.719 38.5071 227.671 38.0099C228.623 37.4986 229.39 36.7457 229.972 35.7514C230.569 34.7571 230.86 33.5284 230.846 32.0653ZM256.259 2.36364V46H247.183V2.36364H256.259ZM277.588 46V2.36364H306.48V9.97017H286.813V20.3679H304.562V27.9744H286.813V46H277.588ZM325.027 46.6392C321.661 46.6392 318.763 45.9574 316.334 44.5938C313.919 43.2159 312.058 41.2699 310.752 38.7557C309.445 36.2273 308.791 33.2372 308.791 29.7855C308.791 26.419 309.445 23.4645 310.752 20.9219C312.058 18.3793 313.898 16.3977 316.27 14.9773C318.656 13.5568 321.455 12.8466 324.665 12.8466C326.824 12.8466 328.834 13.1946 330.695 13.8906C332.57 14.5724 334.203 15.6023 335.595 16.9801C337.002 18.358 338.095 20.0909 338.877 22.179C339.658 24.2528 340.048 26.6818 340.048 29.4659V31.9588H312.414V26.3338H331.504C331.504 25.027 331.22 23.8693 330.652 22.8608C330.084 21.8523 329.296 21.0639 328.287 20.4957C327.293 19.9134 326.135 19.6222 324.814 19.6222C323.436 19.6222 322.215 19.9418 321.149 20.581C320.098 21.206 319.274 22.0511 318.678 23.1165C318.081 24.1676 317.776 25.3395 317.762 26.6321V31.9801C317.762 33.5994 318.06 34.9986 318.656 36.1776C319.267 37.3565 320.127 38.2656 321.235 38.9048C322.343 39.544 323.656 39.8636 325.176 39.8636C326.185 39.8636 327.108 39.7216 327.946 39.4375C328.784 39.1534 329.502 38.7273 330.098 38.1591C330.695 37.5909 331.149 36.8949 331.462 36.071L339.857 36.625C339.431 38.642 338.557 40.4034 337.236 41.9091C335.929 43.4006 334.239 44.5653 332.165 45.4034C330.105 46.2273 327.726 46.6392 325.027 46.6392ZM355.304 46.6179C353.216 46.6179 351.355 46.2557 349.722 45.5312C348.088 44.7926 346.796 43.706 345.844 42.2713C344.906 40.8224 344.438 39.0185 344.438 36.8594C344.438 35.0412 344.771 33.5142 345.439 32.2784C346.107 31.0426 347.016 30.0483 348.166 29.2955C349.317 28.5426 350.624 27.9744 352.087 27.5909C353.564 27.2074 355.112 26.9375 356.732 26.7812C358.635 26.5824 360.169 26.3977 361.334 26.2273C362.499 26.0426 363.344 25.7727 363.869 25.4176C364.395 25.0625 364.658 24.5369 364.658 23.8409V23.7131C364.658 22.3636 364.232 21.3196 363.379 20.581C362.541 19.8423 361.348 19.473 359.8 19.473C358.166 19.473 356.867 19.8352 355.901 20.5597C354.935 21.2699 354.296 22.1648 353.983 23.2443L345.588 22.5625C346.014 20.5739 346.852 18.8551 348.102 17.4062C349.352 15.9432 350.965 14.821 352.939 14.0398C354.928 13.2443 357.229 12.8466 359.843 12.8466C361.661 12.8466 363.401 13.0597 365.063 13.4858C366.739 13.9119 368.223 14.5724 369.516 15.4673C370.823 16.3622 371.852 17.5128 372.605 18.919C373.358 20.3111 373.735 21.9801 373.735 23.9261V46H365.127V41.4616H364.871C364.345 42.4844 363.642 43.3864 362.762 44.1676C361.881 44.9347 360.823 45.5384 359.587 45.9787C358.351 46.4048 356.923 46.6179 355.304 46.6179ZM357.904 40.3537C359.239 40.3537 360.418 40.0909 361.441 39.5653C362.463 39.0256 363.266 38.3011 363.848 37.392C364.431 36.483 364.722 35.4531 364.722 34.3026V30.8295C364.438 31.0142 364.047 31.1847 363.55 31.3409C363.067 31.483 362.52 31.6179 361.909 31.7457C361.298 31.8594 360.688 31.9659 360.077 32.0653C359.466 32.1506 358.912 32.2287 358.415 32.2997C357.35 32.456 356.419 32.7045 355.624 33.0455C354.828 33.3864 354.21 33.848 353.77 34.4304C353.33 34.9986 353.11 35.7088 353.11 36.5611C353.11 37.7969 353.557 38.7415 354.452 39.3949C355.361 40.0341 356.512 40.3537 357.904 40.3537ZM398.184 13.2727V20.0909H378.475V13.2727H398.184ZM382.95 5.43182H392.026V35.9432C392.026 36.7812 392.154 37.4347 392.41 37.9034C392.666 38.358 393.021 38.6776 393.475 38.8622C393.944 39.0469 394.484 39.1392 395.095 39.1392C395.521 39.1392 395.947 39.1037 396.373 39.0327C396.799 38.9474 397.126 38.8835 397.353 38.8409L398.781 45.5952C398.326 45.7372 397.687 45.9006 396.863 46.0852C396.039 46.2841 395.038 46.4048 393.859 46.4474C391.671 46.5327 389.754 46.2415 388.106 45.5739C386.472 44.9062 385.201 43.8693 384.292 42.4631C383.383 41.0568 382.936 39.2812 382.95 37.1364V5.43182ZM425.084 32.0653V13.2727H434.161V46H425.446V40.0554H425.105C424.367 41.973 423.138 43.5142 421.419 44.679C419.715 45.8437 417.634 46.4261 415.176 46.4261C412.989 46.4261 411.064 45.929 409.402 44.9347C407.74 43.9403 406.441 42.527 405.503 40.6946C404.58 38.8622 404.111 36.6676 404.097 34.1108V13.2727H413.173V32.4915C413.188 34.4233 413.706 35.9503 414.729 37.0724C415.752 38.1946 417.122 38.7557 418.841 38.7557C419.935 38.7557 420.958 38.5071 421.909 38.0099C422.861 37.4986 423.628 36.7457 424.21 35.7514C424.807 34.7571 425.098 33.5284 425.084 32.0653ZM441.421 46V13.2727H450.221V18.983H450.562C451.158 16.9517 452.16 15.4176 453.566 14.3807C454.972 13.3295 456.591 12.804 458.424 12.804C458.878 12.804 459.368 12.8324 459.894 12.8892C460.42 12.946 460.881 13.0241 461.279 13.1236V21.1776C460.853 21.0497 460.263 20.9361 459.51 20.8366C458.758 20.7372 458.069 20.6875 457.444 20.6875C456.108 20.6875 454.915 20.9787 453.864 21.5611C452.827 22.1293 452.003 22.9247 451.393 23.9474C450.796 24.9702 450.498 26.1491 450.498 27.4844V46H441.421ZM479.363 46.6392C475.997 46.6392 473.099 45.9574 470.67 44.5938C468.255 43.2159 466.394 41.2699 465.088 38.7557C463.781 36.2273 463.127 33.2372 463.127 29.7855C463.127 26.419 463.781 23.4645 465.088 20.9219C466.394 18.3793 468.234 16.3977 470.606 14.9773C472.992 13.5568 475.791 12.8466 479.001 12.8466C481.16 12.8466 483.17 13.1946 485.031 13.8906C486.906 14.5724 488.539 15.6023 489.931 16.9801C491.338 18.358 492.431 20.0909 493.213 22.179C493.994 24.2528 494.384 26.6818 494.384 29.4659V31.9588H466.749V26.3338H485.84C485.84 25.027 485.556 23.8693 484.988 22.8608C484.42 21.8523 483.632 21.0639 482.623 20.4957C481.629 19.9134 480.471 19.6222 479.15 19.6222C477.772 19.6222 476.551 19.9418 475.485 20.581C474.434 21.206 473.61 22.0511 473.014 23.1165C472.417 24.1676 472.112 25.3395 472.097 26.6321V31.9801C472.097 33.5994 472.396 34.9986 472.992 36.1776C473.603 37.3565 474.463 38.2656 475.57 38.9048C476.678 39.544 477.992 39.8636 479.512 39.8636C480.521 39.8636 481.444 39.7216 482.282 39.4375C483.12 39.1534 483.838 38.7273 484.434 38.1591C485.031 37.5909 485.485 36.8949 485.798 36.071L494.193 36.625C493.767 38.642 492.893 40.4034 491.572 41.9091C490.265 43.4006 488.575 44.5653 486.501 45.4034C484.441 46.2273 482.062 46.6392 479.363 46.6392ZM527.538 22.6051L519.228 23.1165C519.086 22.4062 518.781 21.767 518.312 21.1989C517.843 20.6165 517.225 20.1548 516.458 19.8139C515.705 19.4588 514.803 19.2812 513.752 19.2812C512.346 19.2812 511.16 19.5795 510.194 20.1761C509.228 20.7585 508.745 21.5398 508.745 22.5199C508.745 23.3011 509.058 23.9616 509.683 24.5014C510.308 25.0412 511.38 25.4744 512.9 25.8011L518.823 26.9943C522.005 27.6477 524.377 28.6989 525.94 30.1477C527.502 31.5966 528.284 33.5 528.284 35.858C528.284 38.0028 527.651 39.8849 526.387 41.5043C525.137 43.1236 523.419 44.3878 521.231 45.2969C519.058 46.1918 516.551 46.6392 513.71 46.6392C509.377 46.6392 505.926 45.7372 503.355 43.9332C500.798 42.1151 499.299 39.6435 498.859 36.5185L507.786 36.0497C508.056 37.3707 508.71 38.3793 509.747 39.0753C510.784 39.7571 512.112 40.098 513.731 40.098C515.322 40.098 516.6 39.7926 517.566 39.1818C518.546 38.5568 519.044 37.7543 519.058 36.7741C519.044 35.9503 518.695 35.2756 518.014 34.75C517.332 34.2102 516.281 33.7983 514.86 33.5142L509.193 32.3849C505.997 31.7457 503.617 30.6378 502.055 29.0611C500.507 27.4844 499.732 25.4744 499.732 23.0312C499.732 20.929 500.301 19.1179 501.437 17.598C502.588 16.0781 504.2 14.9063 506.274 14.0824C508.362 13.2585 510.805 12.8466 513.603 12.8466C517.737 12.8466 520.99 13.7202 523.362 15.4673C525.748 17.2145 527.14 19.5937 527.538 22.6051ZM565.485 13.2727V20.0909H545.286V13.2727H565.485ZM549.91 46V10.9077C549.91 8.53551 550.372 6.56818 551.295 5.00568C552.232 3.44318 553.511 2.2713 555.13 1.49005C556.749 0.708804 558.589 0.318179 560.649 0.318179C562.041 0.318179 563.312 0.424714 564.463 0.637784C565.627 0.850851 566.494 1.04261 567.062 1.21307L565.443 8.03125C565.088 7.91761 564.647 7.81108 564.122 7.71165C563.61 7.61222 563.085 7.5625 562.545 7.5625C561.21 7.5625 560.279 7.875 559.754 8.5C559.228 9.1108 558.965 9.97017 558.965 11.0781V46H549.91ZM584.645 46.6392C581.336 46.6392 578.474 45.9361 576.059 44.5298C573.658 43.1094 571.805 41.1349 570.498 38.6065C569.191 36.0639 568.537 33.1165 568.537 29.7642C568.537 26.3835 569.191 23.429 570.498 20.9006C571.805 18.358 573.658 16.3835 576.059 14.9773C578.474 13.5568 581.336 12.8466 584.645 12.8466C587.955 12.8466 590.81 13.5568 593.211 14.9773C595.626 16.3835 597.486 18.358 598.793 20.9006C600.1 23.429 600.753 26.3835 600.753 29.7642C600.753 33.1165 600.1 36.0639 598.793 38.6065C597.486 41.1349 595.626 43.1094 593.211 44.5298C590.81 45.9361 587.955 46.6392 584.645 46.6392ZM584.688 39.608C586.194 39.608 587.451 39.1818 588.459 38.3295C589.468 37.4631 590.228 36.2841 590.739 34.7926C591.265 33.3011 591.528 31.6037 591.528 29.7003C591.528 27.7969 591.265 26.0994 590.739 24.608C590.228 23.1165 589.468 21.9375 588.459 21.071C587.451 20.2045 586.194 19.7713 584.688 19.7713C583.168 19.7713 581.89 20.2045 580.853 21.071C579.83 21.9375 579.056 23.1165 578.53 24.608C578.019 26.0994 577.763 27.7969 577.763 29.7003C577.763 31.6037 578.019 33.3011 578.53 34.7926C579.056 36.2841 579.83 37.4631 580.853 38.3295C581.89 39.1818 583.168 39.608 584.688 39.608ZM606.655 46V13.2727H615.455V18.983H615.796C616.393 16.9517 617.394 15.4176 618.8 14.3807C620.206 13.3295 621.826 12.804 623.658 12.804C624.113 12.804 624.603 12.8324 625.128 12.8892C625.654 12.946 626.116 13.0241 626.513 13.1236V21.1776C626.087 21.0497 625.498 20.9361 624.745 20.8366C623.992 20.7372 623.303 20.6875 622.678 20.6875C621.343 20.6875 620.15 20.9787 619.099 21.5611C618.062 22.1293 617.238 22.9247 616.627 23.9474C616.03 24.9702 615.732 26.1491 615.732 27.4844V46H606.655ZM58.8864 119V75.3636H87.7784V82.9702H68.1122V93.3679H85.8608V100.974H68.1122V119H58.8864ZM93.8136 119V86.2727H102.89V119H93.8136ZM98.3732 82.054C97.0238 82.054 95.8661 81.6065 94.9002 80.7116C93.9485 79.8026 93.4727 78.7159 93.4727 77.4517C93.4727 76.2017 93.9485 75.1293 94.9002 74.2344C95.8661 73.3253 97.0238 72.8707 98.3732 72.8707C99.7227 72.8707 100.873 73.3253 101.825 74.2344C102.791 75.1293 103.274 76.2017 103.274 77.4517C103.274 78.7159 102.791 79.8026 101.825 80.7116C100.873 81.6065 99.7227 82.054 98.3732 82.054ZM119.238 100.08V119H110.161V86.2727H118.812V92.0469H119.195C119.92 90.1435 121.134 88.6378 122.839 87.5298C124.543 86.4077 126.61 85.8466 129.039 85.8466C131.312 85.8466 133.293 86.3438 134.984 87.3381C136.674 88.3324 137.988 89.7528 138.925 91.5994C139.863 93.4318 140.332 95.6193 140.332 98.1619V119H131.255V99.7812C131.269 97.7784 130.758 96.2159 129.721 95.0938C128.684 93.9574 127.256 93.3892 125.438 93.3892C124.217 93.3892 123.137 93.652 122.2 94.1776C121.276 94.7031 120.552 95.4702 120.026 96.4787C119.515 97.473 119.252 98.6733 119.238 100.08ZM156.818 119.618C154.73 119.618 152.869 119.256 151.235 118.531C149.602 117.793 148.309 116.706 147.358 115.271C146.42 113.822 145.951 112.018 145.951 109.859C145.951 108.041 146.285 106.514 146.953 105.278C147.62 104.043 148.529 103.048 149.68 102.295C150.831 101.543 152.137 100.974 153.6 100.591C155.078 100.207 156.626 99.9375 158.245 99.7812C160.149 99.5824 161.683 99.3977 162.848 99.2273C164.012 99.0426 164.858 98.7727 165.383 98.4176C165.909 98.0625 166.172 97.5369 166.172 96.8409V96.7131C166.172 95.3636 165.745 94.3196 164.893 93.581C164.055 92.8423 162.862 92.473 161.314 92.473C159.68 92.473 158.38 92.8352 157.414 93.5597C156.449 94.2699 155.809 95.1648 155.497 96.2443L147.102 95.5625C147.528 93.5739 148.366 91.8551 149.616 90.4062C150.866 88.9432 152.478 87.821 154.453 87.0398C156.441 86.2443 158.743 85.8466 161.356 85.8466C163.174 85.8466 164.914 86.0597 166.576 86.4858C168.252 86.9119 169.737 87.5724 171.029 88.4673C172.336 89.3622 173.366 90.5128 174.119 91.919C174.872 93.3111 175.248 94.9801 175.248 96.9261V119H166.64V114.462H166.385C165.859 115.484 165.156 116.386 164.275 117.168C163.395 117.935 162.336 118.538 161.1 118.979C159.865 119.405 158.437 119.618 156.818 119.618ZM159.417 113.354C160.752 113.354 161.931 113.091 162.954 112.565C163.977 112.026 164.779 111.301 165.362 110.392C165.944 109.483 166.235 108.453 166.235 107.303V103.83C165.951 104.014 165.561 104.185 165.064 104.341C164.581 104.483 164.034 104.618 163.423 104.746C162.812 104.859 162.201 104.966 161.591 105.065C160.98 105.151 160.426 105.229 159.929 105.3C158.863 105.456 157.933 105.705 157.137 106.045C156.342 106.386 155.724 106.848 155.284 107.43C154.843 107.999 154.623 108.709 154.623 109.561C154.623 110.797 155.071 111.741 155.966 112.395C156.875 113.034 158.025 113.354 159.417 113.354ZM191.367 100.08V119H182.29V86.2727H190.941V92.0469H191.324C192.049 90.1435 193.263 88.6378 194.968 87.5298C196.672 86.4077 198.739 85.8466 201.168 85.8466C203.441 85.8466 205.422 86.3438 207.113 87.3381C208.803 88.3324 210.117 89.7528 211.054 91.5994C211.992 93.4318 212.461 95.6193 212.461 98.1619V119H203.384V99.7812C203.398 97.7784 202.887 96.2159 201.85 95.0938C200.813 93.9574 199.385 93.3892 197.567 93.3892C196.346 93.3892 195.266 93.652 194.328 94.1776C193.405 94.7031 192.681 95.4702 192.155 96.4787C191.644 97.473 191.381 98.6733 191.367 100.08ZM234.401 119.639C231.049 119.639 228.165 118.929 225.751 117.509C223.35 116.074 221.504 114.085 220.211 111.543C218.933 109 218.293 106.074 218.293 102.764C218.293 99.4119 218.94 96.4716 220.232 93.9432C221.539 91.4006 223.393 89.419 225.793 87.9986C228.194 86.5639 231.049 85.8466 234.359 85.8466C237.214 85.8466 239.714 86.3651 241.859 87.402C244.004 88.4389 245.701 89.8949 246.951 91.7699C248.201 93.6449 248.89 95.8466 249.018 98.375H240.452C240.211 96.7415 239.572 95.4276 238.535 94.4332C237.512 93.4247 236.17 92.9205 234.508 92.9205C233.102 92.9205 231.873 93.304 230.822 94.071C229.785 94.8239 228.975 95.9247 228.393 97.3736C227.81 98.8224 227.519 100.577 227.519 102.636C227.519 104.724 227.803 106.5 228.371 107.963C228.954 109.426 229.771 110.541 230.822 111.308C231.873 112.075 233.102 112.459 234.508 112.459C235.545 112.459 236.475 112.246 237.299 111.82C238.137 111.393 238.826 110.776 239.366 109.966C239.92 109.142 240.282 108.155 240.452 107.004H249.018C248.876 109.504 248.194 111.706 246.972 113.609C245.765 115.499 244.096 116.976 241.965 118.041C239.835 119.107 237.313 119.639 234.401 119.639ZM254.829 119V86.2727H263.906V119H254.829ZM259.389 82.054C258.039 82.054 256.882 81.6065 255.916 80.7116C254.964 79.8026 254.488 78.7159 254.488 77.4517C254.488 76.2017 254.964 75.1293 255.916 74.2344C256.882 73.3253 258.039 72.8707 259.389 72.8707C260.738 72.8707 261.889 73.3253 262.841 74.2344C263.806 75.1293 264.289 76.2017 264.289 77.4517C264.289 78.7159 263.806 79.8026 262.841 80.7116C261.889 81.6065 260.738 82.054 259.389 82.054ZM280.509 119.618C278.421 119.618 276.56 119.256 274.927 118.531C273.293 117.793 272.001 116.706 271.049 115.271C270.112 113.822 269.643 112.018 269.643 109.859C269.643 108.041 269.977 106.514 270.644 105.278C271.312 104.043 272.221 103.048 273.371 102.295C274.522 101.543 275.829 100.974 277.292 100.591C278.769 100.207 280.317 99.9375 281.937 99.7812C283.84 99.5824 285.374 99.3977 286.539 99.2273C287.704 99.0426 288.549 98.7727 289.075 98.4176C289.6 98.0625 289.863 97.5369 289.863 96.8409V96.7131C289.863 95.3636 289.437 94.3196 288.585 93.581C287.746 92.8423 286.553 92.473 285.005 92.473C283.371 92.473 282.072 92.8352 281.106 93.5597C280.14 94.2699 279.501 95.1648 279.188 96.2443L270.793 95.5625C271.219 93.5739 272.058 91.8551 273.308 90.4062C274.558 88.9432 276.17 87.821 278.144 87.0398C280.133 86.2443 282.434 85.8466 285.048 85.8466C286.866 85.8466 288.606 86.0597 290.268 86.4858C291.944 86.9119 293.428 87.5724 294.721 88.4673C296.028 89.3622 297.058 90.5128 297.81 91.919C298.563 93.3111 298.94 94.9801 298.94 96.9261V119H290.332V114.462H290.076C289.55 115.484 288.847 116.386 287.967 117.168C287.086 117.935 286.028 118.538 284.792 118.979C283.556 119.405 282.129 119.618 280.509 119.618ZM283.109 113.354C284.444 113.354 285.623 113.091 286.646 112.565C287.668 112.026 288.471 111.301 289.053 110.392C289.636 109.483 289.927 108.453 289.927 107.303V103.83C289.643 104.014 289.252 104.185 288.755 104.341C288.272 104.483 287.725 104.618 287.114 104.746C286.504 104.859 285.893 104.966 285.282 105.065C284.671 105.151 284.117 105.229 283.62 105.3C282.555 105.456 281.624 105.705 280.829 106.045C280.033 106.386 279.415 106.848 278.975 107.43C278.535 107.999 278.315 108.709 278.315 109.561C278.315 110.797 278.762 111.741 279.657 112.395C280.566 113.034 281.717 113.354 283.109 113.354ZM315.058 75.3636V119H305.982V75.3636H315.058ZM360.058 87.9134C359.888 86.1946 359.156 84.8594 357.864 83.9077C356.571 82.956 354.817 82.4801 352.601 82.4801C351.095 82.4801 349.824 82.6932 348.787 83.1193C347.75 83.5312 346.955 84.1065 346.401 84.8452C345.861 85.5838 345.591 86.4219 345.591 87.3594C345.563 88.1406 345.726 88.8224 346.081 89.4048C346.45 89.9872 346.955 90.4915 347.594 90.9176C348.233 91.3295 348.972 91.6918 349.81 92.0043C350.648 92.3026 351.543 92.5582 352.494 92.7713L356.415 93.7088C358.318 94.1349 360.065 94.7031 361.656 95.4134C363.247 96.1236 364.625 96.9972 365.79 98.0341C366.955 99.071 367.857 100.293 368.496 101.699C369.149 103.105 369.483 104.717 369.497 106.536C369.483 109.206 368.801 111.521 367.452 113.482C366.116 115.428 364.185 116.94 361.656 118.02C359.142 119.085 356.109 119.618 352.558 119.618C349.036 119.618 345.967 119.078 343.354 117.999C340.754 116.919 338.723 115.321 337.26 113.205C335.811 111.074 335.051 108.439 334.98 105.3H343.908C344.007 106.763 344.426 107.984 345.165 108.964C345.918 109.93 346.919 110.662 348.169 111.159C349.433 111.642 350.861 111.884 352.452 111.884C354.014 111.884 355.371 111.656 356.521 111.202C357.686 110.747 358.588 110.115 359.227 109.305C359.866 108.496 360.186 107.565 360.186 106.514C360.186 105.534 359.895 104.71 359.312 104.043C358.744 103.375 357.906 102.807 356.798 102.338C355.705 101.869 354.362 101.443 352.771 101.06L348.02 99.8665C344.341 98.9716 341.436 97.5724 339.305 95.669C337.175 93.7656 336.116 91.2017 336.131 87.9773C336.116 85.3352 336.82 83.027 338.24 81.0526C339.675 79.0781 341.642 77.5369 344.142 76.429C346.642 75.321 349.483 74.767 352.665 74.767C355.903 74.767 358.73 75.321 361.145 76.429C363.574 77.5369 365.463 79.0781 366.812 81.0526C368.162 83.027 368.858 85.3139 368.901 87.9134H360.058ZM396.52 105.065V86.2727H405.596V119H396.882V113.055H396.541C395.802 114.973 394.574 116.514 392.855 117.679C391.15 118.844 389.069 119.426 386.612 119.426C384.424 119.426 382.5 118.929 380.838 117.935C379.176 116.94 377.876 115.527 376.939 113.695C376.015 111.862 375.547 109.668 375.532 107.111V86.2727H384.609V105.491C384.623 107.423 385.142 108.95 386.164 110.072C387.187 111.195 388.558 111.756 390.277 111.756C391.37 111.756 392.393 111.507 393.345 111.01C394.297 110.499 395.064 109.746 395.646 108.751C396.243 107.757 396.534 106.528 396.52 105.065ZM427.643 119.639C424.291 119.639 421.408 118.929 418.993 117.509C416.592 116.074 414.746 114.085 413.453 111.543C412.175 109 411.536 106.074 411.536 102.764C411.536 99.4119 412.182 96.4716 413.474 93.9432C414.781 91.4006 416.635 89.419 419.036 87.9986C421.436 86.5639 424.291 85.8466 427.601 85.8466C430.456 85.8466 432.956 86.3651 435.101 87.402C437.246 88.4389 438.943 89.8949 440.193 91.7699C441.443 93.6449 442.132 95.8466 442.26 98.375H433.695C433.453 96.7415 432.814 95.4276 431.777 94.4332C430.754 93.4247 429.412 92.9205 427.75 92.9205C426.344 92.9205 425.115 93.304 424.064 94.071C423.027 94.8239 422.217 95.9247 421.635 97.3736C421.053 98.8224 420.761 100.577 420.761 102.636C420.761 104.724 421.045 106.5 421.614 107.963C422.196 109.426 423.013 110.541 424.064 111.308C425.115 112.075 426.344 112.459 427.75 112.459C428.787 112.459 429.717 112.246 430.541 111.82C431.379 111.393 432.068 110.776 432.608 109.966C433.162 109.142 433.524 108.155 433.695 107.004H442.26C442.118 109.504 441.436 111.706 440.214 113.609C439.007 115.499 437.338 116.976 435.207 118.041C433.077 119.107 430.555 119.639 427.643 119.639ZM462.858 119.639C459.506 119.639 456.623 118.929 454.208 117.509C451.807 116.074 449.961 114.085 448.668 111.543C447.39 109 446.75 106.074 446.75 102.764C446.75 99.4119 447.397 96.4716 448.689 93.9432C449.996 91.4006 451.85 89.419 454.25 87.9986C456.651 86.5639 459.506 85.8466 462.816 85.8466C465.671 85.8466 468.171 86.3651 470.316 87.402C472.461 88.4389 474.158 89.8949 475.408 91.7699C476.658 93.6449 477.347 95.8466 477.475 98.375H468.909C468.668 96.7415 468.029 95.4276 466.992 94.4332C465.969 93.4247 464.627 92.9205 462.965 92.9205C461.559 92.9205 460.33 93.304 459.279 94.071C458.242 94.8239 457.432 95.9247 456.85 97.3736C456.267 98.8224 455.976 100.577 455.976 102.636C455.976 104.724 456.26 106.5 456.828 107.963C457.411 109.426 458.228 110.541 459.279 111.308C460.33 112.075 461.559 112.459 462.965 112.459C464.002 112.459 464.932 112.246 465.756 111.82C466.594 111.393 467.283 110.776 467.823 109.966C468.377 109.142 468.739 108.155 468.909 107.004H477.475C477.333 109.504 476.651 111.706 475.429 113.609C474.222 115.499 472.553 116.976 470.422 118.041C468.292 119.107 465.77 119.639 462.858 119.639ZM498.201 119.639C494.835 119.639 491.937 118.957 489.508 117.594C487.093 116.216 485.232 114.27 483.925 111.756C482.619 109.227 481.965 106.237 481.965 102.786C481.965 99.419 482.619 96.4645 483.925 93.9219C485.232 91.3793 487.072 89.3977 489.444 87.9773C491.83 86.5568 494.629 85.8466 497.839 85.8466C499.998 85.8466 502.008 86.1946 503.869 86.8906C505.744 87.5724 507.377 88.6023 508.769 89.9801C510.175 91.358 511.269 93.0909 512.05 95.179C512.832 97.2528 513.222 99.6818 513.222 102.466V104.959H485.587V99.3338H504.678C504.678 98.027 504.394 96.8693 503.826 95.8608C503.258 94.8523 502.469 94.0639 501.461 93.4957C500.467 92.9134 499.309 92.6222 497.988 92.6222C496.61 92.6222 495.388 92.9418 494.323 93.581C493.272 94.206 492.448 95.0511 491.852 96.1165C491.255 97.1676 490.95 98.3395 490.935 99.6321V104.98C490.935 106.599 491.234 107.999 491.83 109.178C492.441 110.357 493.3 111.266 494.408 111.905C495.516 112.544 496.83 112.864 498.35 112.864C499.359 112.864 500.282 112.722 501.12 112.438C501.958 112.153 502.675 111.727 503.272 111.159C503.869 110.591 504.323 109.895 504.636 109.071L513.031 109.625C512.604 111.642 511.731 113.403 510.41 114.909C509.103 116.401 507.413 117.565 505.339 118.403C503.279 119.227 500.9 119.639 498.201 119.639ZM546.376 95.6051L538.066 96.1165C537.924 95.4062 537.619 94.767 537.15 94.1989C536.681 93.6165 536.063 93.1548 535.296 92.8139C534.543 92.4588 533.641 92.2812 532.59 92.2812C531.184 92.2812 529.998 92.5795 529.032 93.1761C528.066 93.7585 527.583 94.5398 527.583 95.5199C527.583 96.3011 527.896 96.9616 528.521 97.5014C529.146 98.0412 530.218 98.4744 531.738 98.8011L537.661 99.9943C540.843 100.648 543.215 101.699 544.778 103.148C546.34 104.597 547.121 106.5 547.121 108.858C547.121 111.003 546.489 112.885 545.225 114.504C543.975 116.124 542.256 117.388 540.069 118.297C537.896 119.192 535.388 119.639 532.548 119.639C528.215 119.639 524.763 118.737 522.192 116.933C519.636 115.115 518.137 112.643 517.697 109.518L526.624 109.05C526.894 110.371 527.548 111.379 528.585 112.075C529.621 112.757 530.95 113.098 532.569 113.098C534.16 113.098 535.438 112.793 536.404 112.182C537.384 111.557 537.881 110.754 537.896 109.774C537.881 108.95 537.533 108.276 536.852 107.75C536.17 107.21 535.119 106.798 533.698 106.514L528.031 105.385C524.835 104.746 522.455 103.638 520.893 102.061C519.344 100.484 518.57 98.4744 518.57 96.0312C518.57 93.929 519.138 92.1179 520.275 90.598C521.425 89.0781 523.038 87.9062 525.112 87.0824C527.2 86.2585 529.643 85.8466 532.441 85.8466C536.575 85.8466 539.827 86.7202 542.2 88.4673C544.586 90.2145 545.978 92.5937 546.376 95.6051ZM580.067 95.6051L571.757 96.1165C571.615 95.4062 571.31 94.767 570.841 94.1989C570.373 93.6165 569.755 93.1548 568.988 92.8139C568.235 92.4588 567.333 92.2812 566.282 92.2812C564.875 92.2812 563.689 92.5795 562.723 93.1761C561.757 93.7585 561.275 94.5398 561.275 95.5199C561.275 96.3011 561.587 96.9616 562.212 97.5014C562.837 98.0412 563.909 98.4744 565.429 98.8011L571.353 99.9943C574.534 100.648 576.907 101.699 578.469 103.148C580.032 104.597 580.813 106.5 580.813 108.858C580.813 111.003 580.181 112.885 578.917 114.504C577.667 116.124 575.948 117.388 573.76 118.297C571.587 119.192 569.08 119.639 566.239 119.639C561.907 119.639 558.455 118.737 555.884 116.933C553.327 115.115 551.828 112.643 551.388 109.518L560.316 109.05C560.586 110.371 561.239 111.379 562.276 112.075C563.313 112.757 564.641 113.098 566.26 113.098C567.851 113.098 569.13 112.793 570.096 112.182C571.076 111.557 571.573 110.754 571.587 109.774C571.573 108.95 571.225 108.276 570.543 107.75C569.861 107.21 568.81 106.798 567.39 106.514L561.722 105.385C558.526 104.746 556.147 103.638 554.584 102.061C553.036 100.484 552.262 98.4744 552.262 96.0312C552.262 93.929 552.83 92.1179 553.966 90.598C555.117 89.0781 556.729 87.9062 558.803 87.0824C560.891 86.2585 563.334 85.8466 566.132 85.8466C570.266 85.8466 573.519 86.7202 575.891 88.4673C578.277 90.2145 579.669 92.5937 580.067 95.6051Z" fill="url(#paint0_linear_166_4)"/>
<defs>
<linearGradient id="paint0_linear_166_4" x1="-184" y1="61" x2="822" y2="61" gradientUnits="userSpaceOnUse">
<stop stop-color="#6CF6CA"/>
<stop offset="1"/>
</linearGradient>
</defs>
</svg>
