<svg width="284" height="58" viewBox="0 0 284 58" fill="none" xmlns="http://www.w3.org/2000/svg">
<path d="M3.03409 46V11.0909H17.0114C19.5795 11.0909 21.7216 11.4716 23.4375 12.233C25.1534 12.9943 26.4432 14.0511 27.3068 15.4034C28.1705 16.7443 28.6023 18.2898 28.6023 20.0398C28.6023 21.4034 28.3295 22.6023 27.7841 23.6364C27.2386 24.6591 26.4886 25.5 25.5341 26.1591C24.5909 26.8068 23.5114 27.267 22.2955 27.5398V27.8807C23.625 27.9375 24.8693 28.3125 26.0284 29.0057C27.1989 29.6989 28.1477 30.6705 28.875 31.9205C29.6023 33.1591 29.9659 34.6364 29.9659 36.3523C29.9659 38.2045 29.5057 39.858 28.5852 41.3125C27.6761 42.7557 26.3295 43.8977 24.5455 44.7386C22.7614 45.5795 20.5625 46 17.9489 46H3.03409ZM10.4148 39.9659H16.4318C18.4886 39.9659 19.9886 39.5739 20.9318 38.7898C21.875 37.9943 22.3466 36.9375 22.3466 35.6193C22.3466 34.6534 22.1136 33.8011 21.6477 33.0625C21.1818 32.3239 20.517 31.7443 19.6534 31.3239C18.8011 30.9034 17.7841 30.6932 16.6023 30.6932H10.4148V39.9659ZM10.4148 25.6989H15.8864C16.8977 25.6989 17.7955 25.5227 18.5795 25.1705C19.375 24.8068 20 24.2955 20.4545 23.6364C20.9205 22.9773 21.1534 22.1875 21.1534 21.267C21.1534 20.0057 20.7045 18.9886 19.8068 18.2159C18.9205 17.4432 17.6591 17.0568 16.0227 17.0568H10.4148V25.6989ZM51.4219 34.8523V19.8182H58.6832V46H51.7116V41.2443H51.4389C50.848 42.7784 49.8651 44.0114 48.4901 44.9432C47.1264 45.875 45.4616 46.3409 43.4957 46.3409C41.7457 46.3409 40.206 45.9432 38.8764 45.1477C37.5469 44.3523 36.5071 43.2216 35.7571 41.7557C35.0185 40.2898 34.6435 38.5341 34.6321 36.4886V19.8182H41.8935V35.1932C41.9048 36.7386 42.3196 37.9602 43.1378 38.858C43.956 39.7557 45.0526 40.2045 46.4276 40.2045C47.3026 40.2045 48.1207 40.0057 48.8821 39.608C49.6435 39.1989 50.2571 38.5966 50.723 37.8011C51.2003 37.0057 51.4332 36.0227 51.4219 34.8523ZM74.1392 46.4261C72.1506 46.4261 70.3494 45.9148 68.7358 44.892C67.1335 43.858 65.8608 42.3409 64.9176 40.3409C63.9858 38.3295 63.5199 35.8636 63.5199 32.9432C63.5199 29.9432 64.0028 27.4489 64.9688 25.4602C65.9347 23.4602 67.2188 21.9659 68.821 20.9773C70.4347 19.9773 72.2017 19.4773 74.1222 19.4773C75.5881 19.4773 76.8097 19.7273 77.7869 20.2273C78.7756 20.7159 79.571 21.3295 80.1733 22.0682C80.7869 22.7955 81.2528 23.5114 81.571 24.2159H81.7926V11.0909H89.0369V46H81.8778V41.8068H81.571C81.2301 42.5341 80.7472 43.2557 80.1222 43.9716C79.5085 44.6761 78.7074 45.2614 77.7188 45.7273C76.7415 46.1932 75.5483 46.4261 74.1392 46.4261ZM76.4403 40.6477C77.6108 40.6477 78.5994 40.3295 79.4062 39.6932C80.2244 39.0455 80.8494 38.142 81.2812 36.983C81.7244 35.8239 81.946 34.4659 81.946 32.9091C81.946 31.3523 81.7301 30 81.2983 28.8523C80.8665 27.7045 80.2415 26.8182 79.4233 26.1932C78.6051 25.5682 77.6108 25.2557 76.4403 25.2557C75.2472 25.2557 74.2415 25.5795 73.4233 26.2273C72.6051 26.875 71.9858 27.7727 71.5653 28.9205C71.1449 30.0682 70.9347 31.3977 70.9347 32.9091C70.9347 34.4318 71.1449 35.7784 71.5653 36.9489C71.9972 38.108 72.6165 39.017 73.4233 39.6761C74.2415 40.3239 75.2472 40.6477 76.4403 40.6477ZM106.803 56.3636C104.45 56.3636 102.433 56.0398 100.751 55.392C99.081 54.7557 97.7514 53.8864 96.7628 52.7841C95.7741 51.6818 95.1321 50.4432 94.8366 49.0682L101.553 48.1648C101.757 48.6875 102.081 49.1761 102.524 49.6307C102.967 50.0852 103.553 50.4489 104.28 50.7216C105.018 51.0057 105.916 51.1477 106.973 51.1477C108.553 51.1477 109.854 50.7614 110.876 49.9886C111.911 49.2273 112.428 47.9489 112.428 46.1534V41.3636H112.121C111.803 42.0909 111.325 42.7784 110.689 43.4261C110.053 44.0739 109.234 44.6023 108.234 45.0114C107.234 45.4205 106.041 45.625 104.655 45.625C102.689 45.625 100.899 45.1705 99.2855 44.2614C97.6832 43.3409 96.4048 41.9375 95.4503 40.0511C94.5071 38.1534 94.0355 35.7557 94.0355 32.858C94.0355 29.892 94.5185 27.4148 95.4844 25.4261C96.4503 23.4375 97.7344 21.9489 99.3366 20.9602C100.95 19.9716 102.717 19.4773 104.638 19.4773C106.104 19.4773 107.331 19.7273 108.32 20.2273C109.308 20.7159 110.104 21.3295 110.706 22.0682C111.32 22.7955 111.791 23.5114 112.121 24.2159H112.393V19.8182H119.604V46.2557C119.604 48.483 119.058 50.3466 117.967 51.8466C116.876 53.3466 115.365 54.4716 113.433 55.2216C111.513 55.983 109.303 56.3636 106.803 56.3636ZM106.956 40.1705C108.126 40.1705 109.115 39.8807 109.922 39.3011C110.74 38.7102 111.365 37.8693 111.797 36.7784C112.24 35.6761 112.462 34.358 112.462 32.8239C112.462 31.2898 112.246 29.9602 111.814 28.8352C111.382 27.6989 110.757 26.8182 109.939 26.1932C109.121 25.5682 108.126 25.2557 106.956 25.2557C105.763 25.2557 104.757 25.5795 103.939 26.2273C103.121 26.8636 102.501 27.75 102.081 28.8864C101.661 30.0227 101.45 31.3352 101.45 32.8239C101.45 34.3352 101.661 35.642 102.081 36.7443C102.513 37.8352 103.132 38.6818 103.939 39.2841C104.757 39.875 105.763 40.1705 106.956 40.1705ZM137.314 46.5114C134.621 46.5114 132.303 45.9659 130.359 44.875C128.428 43.7727 126.939 42.2159 125.893 40.2045C124.848 38.1818 124.325 35.7898 124.325 33.0284C124.325 30.3352 124.848 27.9716 125.893 25.9375C126.939 23.9034 128.411 22.3182 130.308 21.1818C132.217 20.0455 134.456 19.4773 137.024 19.4773C138.751 19.4773 140.359 19.7557 141.848 20.3125C143.348 20.858 144.655 21.6818 145.768 22.7841C146.893 23.8864 147.768 25.2727 148.393 26.9432C149.018 28.6023 149.331 30.5455 149.331 32.7727V34.767H127.223V30.267H142.496C142.496 29.2216 142.268 28.2955 141.814 27.4886C141.359 26.6818 140.729 26.0511 139.922 25.5966C139.126 25.1307 138.2 24.8977 137.143 24.8977C136.041 24.8977 135.064 25.1534 134.212 25.6648C133.371 26.1648 132.712 26.8409 132.234 27.6932C131.757 28.5341 131.513 29.4716 131.501 30.5057V34.7841C131.501 36.0795 131.74 37.1989 132.217 38.142C132.706 39.0852 133.393 39.8125 134.28 40.3239C135.166 40.8352 136.217 41.0909 137.433 41.0909C138.24 41.0909 138.979 40.9773 139.649 40.75C140.32 40.5227 140.893 40.1818 141.371 39.7273C141.848 39.2727 142.212 38.7159 142.462 38.0568L149.178 38.5C148.837 40.1136 148.138 41.5227 147.081 42.7273C146.036 43.9205 144.683 44.8523 143.024 45.5227C141.376 46.1818 139.473 46.5114 137.314 46.5114ZM167.996 19.8182V25.2727H152.229V19.8182H167.996ZM155.808 13.5455H163.07V37.9545C163.07 38.625 163.172 39.1477 163.376 39.5227C163.581 39.8864 163.865 40.142 164.229 40.2898C164.604 40.4375 165.036 40.5114 165.524 40.5114C165.865 40.5114 166.206 40.483 166.547 40.4261C166.888 40.358 167.149 40.3068 167.331 40.2727L168.473 45.6761C168.109 45.7898 167.598 45.9205 166.939 46.0682C166.28 46.2273 165.479 46.3239 164.536 46.358C162.786 46.4261 161.251 46.1932 159.933 45.6591C158.626 45.125 157.609 44.2955 156.882 43.1705C156.155 42.0455 155.797 40.625 155.808 38.9091V13.5455Z" fill="white"/>
<path d="M173.425 46V11.0909H196.947V17.1761H180.805V25.4943H195.737V31.5795H180.805V39.9148H197.016V46H173.425ZM210.145 46.4943C208.474 46.4943 206.986 46.2045 205.679 45.625C204.372 45.0341 203.338 44.1648 202.577 43.017C201.827 41.858 201.452 40.4148 201.452 38.6875C201.452 37.233 201.719 36.0114 202.253 35.0227C202.787 34.0341 203.514 33.2386 204.435 32.6364C205.355 32.0341 206.401 31.5795 207.571 31.2727C208.753 30.9659 209.991 30.75 211.287 30.625C212.81 30.4659 214.037 30.3182 214.969 30.1818C215.901 30.0341 216.577 29.8182 216.997 29.5341C217.418 29.25 217.628 28.8295 217.628 28.2727V28.1705C217.628 27.0909 217.287 26.2557 216.605 25.6648C215.935 25.0739 214.98 24.7784 213.741 24.7784C212.435 24.7784 211.395 25.0682 210.622 25.6477C209.849 26.2159 209.338 26.9318 209.088 27.7955L202.372 27.25C202.713 25.6591 203.384 24.2841 204.384 23.125C205.384 21.9545 206.673 21.0568 208.253 20.4318C209.844 19.7955 211.685 19.4773 213.776 19.4773C215.23 19.4773 216.622 19.6477 217.952 19.9886C219.293 20.3295 220.48 20.858 221.514 21.5739C222.56 22.2898 223.384 23.2102 223.986 24.3352C224.588 25.4489 224.889 26.7841 224.889 28.3409V46H218.003V42.3693H217.798C217.378 43.1875 216.815 43.9091 216.111 44.5341C215.406 45.1477 214.56 45.6307 213.571 45.983C212.582 46.3239 211.44 46.4943 210.145 46.4943ZM212.224 41.483C213.293 41.483 214.236 41.2727 215.054 40.8523C215.872 40.4205 216.514 39.8409 216.98 39.1136C217.446 38.3864 217.679 37.5625 217.679 36.642V33.8636C217.452 34.0114 217.139 34.1477 216.741 34.2727C216.355 34.3864 215.918 34.4943 215.429 34.5966C214.94 34.6875 214.452 34.7727 213.963 34.8523C213.474 34.9205 213.031 34.983 212.634 35.0398C211.781 35.1648 211.037 35.3636 210.401 35.6364C209.764 35.9091 209.27 36.2784 208.918 36.7443C208.565 37.1989 208.389 37.767 208.389 38.4489C208.389 39.4375 208.747 40.1932 209.463 40.7159C210.19 41.2273 211.111 41.483 212.224 41.483ZM252.307 27.2841L245.659 27.6932C245.545 27.125 245.301 26.6136 244.926 26.1591C244.551 25.6932 244.057 25.3239 243.443 25.0511C242.841 24.767 242.119 24.625 241.278 24.625C240.153 24.625 239.205 24.8636 238.432 25.3409C237.659 25.8068 237.273 26.4318 237.273 27.2159C237.273 27.8409 237.523 28.3693 238.023 28.8011C238.523 29.233 239.381 29.5795 240.597 29.8409L245.335 30.7955C247.881 31.3182 249.778 32.1591 251.028 33.3182C252.278 34.4773 252.903 36 252.903 37.8864C252.903 39.6023 252.398 41.108 251.386 42.4034C250.386 43.6989 249.011 44.7102 247.261 45.4375C245.523 46.1534 243.517 46.5114 241.244 46.5114C237.778 46.5114 235.017 45.7898 232.96 44.3466C230.915 42.892 229.716 40.9148 229.364 38.4148L236.506 38.0398C236.722 39.0966 237.244 39.9034 238.074 40.4602C238.903 41.0057 239.966 41.2784 241.261 41.2784C242.534 41.2784 243.557 41.0341 244.33 40.5455C245.114 40.0455 245.511 39.4034 245.523 38.6193C245.511 37.9602 245.233 37.4205 244.688 37C244.142 36.5682 243.301 36.2386 242.165 36.0114L237.631 35.108C235.074 34.5966 233.17 33.7102 231.92 32.4489C230.682 31.1875 230.062 29.5795 230.062 27.625C230.062 25.9432 230.517 24.4943 231.426 23.2784C232.347 22.0625 233.636 21.125 235.295 20.4659C236.966 19.8068 238.92 19.4773 241.159 19.4773C244.466 19.4773 247.068 20.1761 248.966 21.5739C250.875 22.9716 251.989 24.875 252.307 27.2841ZM269.408 46.5114C266.714 46.5114 264.396 45.9659 262.453 44.875C260.521 43.7727 259.033 42.2159 257.987 40.2045C256.942 38.1818 256.419 35.7898 256.419 33.0284C256.419 30.3352 256.942 27.9716 257.987 25.9375C259.033 23.9034 260.504 22.3182 262.402 21.1818C264.311 20.0455 266.55 19.4773 269.118 19.4773C270.845 19.4773 272.453 19.7557 273.942 20.3125C275.442 20.858 276.749 21.6818 277.862 22.7841C278.987 23.8864 279.862 25.2727 280.487 26.9432C281.112 28.6023 281.425 30.5455 281.425 32.7727V34.767H259.317V30.267H274.589C274.589 29.2216 274.362 28.2955 273.908 27.4886C273.453 26.6818 272.822 26.0511 272.016 25.5966C271.22 25.1307 270.294 24.8977 269.237 24.8977C268.135 24.8977 267.158 25.1534 266.305 25.6648C265.464 26.1648 264.805 26.8409 264.328 27.6932C263.851 28.5341 263.607 29.4716 263.595 30.5057V34.7841C263.595 36.0795 263.834 37.1989 264.311 38.142C264.8 39.0852 265.487 39.8125 266.374 40.3239C267.26 40.8352 268.311 41.0909 269.527 41.0909C270.334 41.0909 271.072 40.9773 271.743 40.75C272.413 40.5227 272.987 40.1818 273.464 39.7273C273.942 39.2727 274.305 38.7159 274.555 38.0568L281.271 38.5C280.93 40.1136 280.232 41.5227 279.175 42.7273C278.129 43.9205 276.777 44.8523 275.118 45.5227C273.47 46.1818 271.567 46.5114 269.408 46.5114Z" fill="#0D9488"/>
</svg>
